<svg xmlns="http://www.w3.org/2000/svg" width="29.69" height="33.91" viewBox="0 0 29.69 33.91">
  <defs>
    <style>
      .cls-1 {
        fill: #fff;
        fill-rule: evenodd;
      }
    </style>
  </defs>
  <path id="Simon_says" data-name="Simon says" class="cls-1" d="M1248.2,1280.34a10.6,10.6,0,0,1,.03,21.19l-0.13-.01c-0.12-.01-0.23-0.02-0.35-0.02l-0.71-.03-0.68.2-7.09,2.12,0.86-3.39,0.47-1.86-1.09-1.59a10.587,10.587,0,0,1,8.69-16.61m0-4.23a14.821,14.821,0,0,0-12.18,23.25l-2.69,10.64,14.24-4.27c0.21,0.01.42,0.03,0.63,0.03a14.825,14.825,0,0,0,0-29.65h0Z" transform="translate(-1233.31 -1276.09)"/>
</svg>
