<svg xmlns="http://www.w3.org/2000/svg" width="33.938" height="33.91" viewBox="0 0 33.938 33.91">
  <defs>
    <style>
      .cls-1 {
        fill: #fff;
        fill-rule: evenodd;
      }
    </style>
  </defs>
  <path id="Write" class="cls-1" d="M359.8,1281.09l3.03,3.03-12.608,13.06h-3.5v-3.49l13.076-12.6m0.027-5.09a2.123,2.123,0,0,0-1.5.62l-15.847,15.27v9.53h9.54l15.279-15.83a2.114,2.114,0,0,0,0-2.99l-5.981-5.98a2.119,2.119,0,0,0-1.5-.62h0Zm3.856,28.6a1.055,1.055,0,0,1-1.06,1.05H339.308a1.055,1.055,0,0,1-1.06-1.05v-23.3a1.057,1.057,0,0,1,1.06-1.06h5.3a2.12,2.12,0,0,0,2.12-2.12h0a2.12,2.12,0,0,0-2.12-2.12h-8.479a2.12,2.12,0,0,0-2.12,2.12v29.65a2.12,2.12,0,0,0,2.12,2.12h29.678a2.12,2.12,0,0,0,2.12-2.12v-8.47a2.12,2.12,0,0,0-2.12-2.12h0a2.12,2.12,0,0,0-2.12,2.12v5.3Z" transform="translate(-334 -1276)"/>
</svg>
